{"title":"Police.Adjective.2009.DVDRip.H264.FEEL-FREE","uid":5726743,"size":1407250641,"categoryP":"video","categoryS":"movies","magnet":"?xt=urn:btih:63ce10ed6d767970eb779aa29deb480988ba3064&amp;dn=Police.Adjective.2009.DVDRip.H264.FEEL-FREE&amp;tr=udp%3A%2F%2Ftracker.openbittorrent.com%3A80&amp;tr=udp%3A%2F%2Fopen.demonii.com%3A1337&amp;tr=udp%3A%2F%2Ftracker.coppersurfer.tk%3A6969&amp;tr=udp%3A%2F%2Fexodus.desync.com%3A6969","seeders":0,"leechers":1,"uploader":"hiest","files":10,"time":1280486088,"description":"Genre:Crime | Drama\nLanguage:Romanian\nIMDb:http://www.imdb.com/title/tt1337051/\nSource:DVD\nSample:yes\nSubtitles:English,hardsubbed\n.............................................\nGeneral\nComplete name : Police.Adjective.2009.DVDRip.H264.FEEL-FREE\nFormat : MPEG-4\nFormat profile : Base Media\nCodec ID : isom\nFile size : 1.29 GiB\nDuration : 1h 50mn\nOverall bit rate : 1 676 Kbps\n..............................................\nVideo\nID : 2\nFormat : AVC\nFormat/Info : Advanced Video Codec\nFormat profile : &lt;a class=&quot;__cf_email__&quot; href=&quot;/cdn-cgi/l/email-protection&quot; data-cfemail=&quot;de9cbfadbbb2b7b0bb9e92eff0ed&quot;&gt;[email&amp;#160;protected]&lt;/a&gt;&lt;script cf-hash='f9e31' type=&quot;text/javascript&quot;&gt;\n/* &lt;![CDATA[ */!function(){try{var t=&quot;currentScript&quot;in document?document.currentScript:function(){for(var t=document.getElementsByTagName(&quot;script&quot;),e=t.length;e--;)if(t[e].getAttribute(&quot;cf-hash&quot;))return t[e]}();if(t&amp;&amp;t.previousSibling){var e,r,n,i,c=t.previousSibling,a=c.getAttribute(&quot;data-cfemail&quot;);if(a){for(e=&quot;&quot;,r=parseInt(a.substr(0,2),16),n=2;a.length-n;n+=2)i=parseInt(a.substr(n,2),16)^r,e+=String.fromCharCode(i);e=document.createTextNode(e),c.parentNode.replaceChild(e,c)}}}catch(u){}}();/* ]]&gt; */&lt;/script&gt;\nFormat settings, CABAC : No\nFormat settings, ReFrames : 1 frame\nCodec ID : avc1\nCodec ID/Info : Advanced Video Coding\nDuration : 1h 50mn\nBit rate mode : Variable\nBit rate : 1 518 Kbps\nWidth : 704 pixels\nHeight : 416 pixels\nDisplay aspect ratio : 1.692\nFrame rate mode : Constant\nFrame rate : 25.000 fps\nResolution : 24 bits\nColorimetry : 4:2:0\nScan type : Progressive\nBits/(Pixel*Frame) : 0.207\nStream size : 1.17 GiB (91%)\n...................................................\nAudio\nID : 1\nFormat : AAC\nFormat/Info : Advanced Audio Codec\nFormat version : Version 4\nFormat profile : LC\nFormat settings, SBR : No\nCodec ID : 40\nDuration : 1h 50mn\nBit rate mode : Constant\nBit rate : 152 Kbps\nChannel(s) : 2 channels\nChannel positions : L R\nSampling rate : 44.1 KHz\nResolution : 16 bits\nStream size : 120 MiB (9%)\n....................................................\nPlot:\nA police officer refuses to arrest a young man for offering drugs to his friends\n...................................................","torrent":{"xt":"urn:btih:63ce10ed6d767970eb779aa29deb480988ba3064","amp;dn":"Police.Adjective.2009.DVDRip.H264.FEEL-FREE","amp;tr":["udp%3A%2F%2Ftracker.openbittorrent.com%3A80","udp%3A%2F%2Fopen.demonii.com%3A1337","udp%3A%2F%2Ftracker.coppersurfer.tk%3A6969","udp%3A%2F%2Fexodus.desync.com%3A6969"],"infoHash":"63ce10ed6d767970eb779aa29deb480988ba3064","infoHashBuffer":{"type":"Buffer","data":[99,206,16,237,109,118,121,112,235,119,154,162,157,235,72,9,136,186,48,100]},"announce":[],"urlList":[]}}